HIERARCHY
ROOT Hips
{
    OFFSET 0.000000 0.000000 0.000000
    CHANNELS 6 Xposition Yposition Zposition Zrotation Xrotation Yrotation
    JOINT Spine
    {
        OFFSET 0.000001 7.292995 0.000000
        CHANNELS 3 Zrotation Xrotation Yrotation
        JOINT Spine1
        {
            OFFSET -0.000000 20.255388 0.000001
            CHANNELS 3 Zrotation Xrotation Yrotation
            JOINT Neck
            {
                OFFSET 0.000001 20.786594 0.000000
                CHANNELS 3 Zrotation Xrotation Yrotation
                JOINT Head
                {
                    OFFSET 0.000003 12.530788 1.776080
                    CHANNELS 3 Zrotation Xrotation Yrotation
                    End Site
                    {
                        OFFSET 0.000000 17.760757 0.000000
                    }
                }
            }
            JOINT LeftShoulder
            {
                OFFSET 3.550532 15.465697 -0.908801
                CHANNELS 3 Zrotation Xrotation Yrotation
                JOINT LeftArm
                {
                    OFFSET 12.513301 -0.000005 0.000001
                    CHANNELS 3 Zrotation Xrotation Yrotation
                    JOINT LeftForeArm
                    {
                        OFFSET 24.225992 0.000005 0.000000
                        CHANNELS 3 Zrotation Xrotation Yrotation
                        JOINT LeftHand
                        {
                            OFFSET 20.711395 -0.000004 0.000000
                            CHANNELS 3 Zrotation Xrotation Yrotation
                            JOINT LeftHandThumb1
                            {
                                OFFSET 2.121964 -2.411326 3.375861
                                CHANNELS 3 Zrotation Xrotation Yrotation
                                JOINT LeftHandThumb2
                                {
                                    OFFSET 2.803212 -0.000001 -0.000002
                                    CHANNELS 3 Zrotation Xrotation Yrotation
                                    JOINT LeftHandThumb3
                                    {
                                        OFFSET 2.395929 0.000000 0.000000
                                        CHANNELS 3 Zrotation Xrotation Yrotation
                                        End Site
                                        {
                                            OFFSET 2.127676 0.000000 0.000000
                                        }
                                    }
                                }
                            }
                            JOINT LeftHandIndex1
                            {
                                OFFSET 8.680776 0.000004 3.375861
                                CHANNELS 3 Zrotation Xrotation Yrotation
                                JOINT LeftHandIndex2
                                {
                                    OFFSET 4.218180 -0.000002 0.000001
                                    CHANNELS 3 Zrotation Xrotation Yrotation
                                    JOINT LeftHandIndex3
                                    {
                                        OFFSET 2.109090 0.000001 -0.000000
                                        CHANNELS 3 Zrotation Xrotation Yrotation
                                        End Site
                                        {
                                            OFFSET 1.872952 0.000000 0.000000
                                        }
                                    }
                                }
                            }
                            JOINT LeftHandMiddle1
                            {
                                OFFSET 8.680775 0.000001 1.118862
                                CHANNELS 3 Zrotation Xrotation Yrotation
                                JOINT LeftHandMiddle2
                                {
                                    OFFSET 4.640000 0.000002 -0.000000
                                    CHANNELS 3 Zrotation Xrotation Yrotation
                                    JOINT LeftHandMiddle3
                                    {
                                        OFFSET 2.530906 0.000005 0.000000
                                        CHANNELS 3 Zrotation Xrotation Yrotation
                                        End Site
                                        {
                                            OFFSET 2.247544 0.000000 0.000000
                                        }
                                    }
                                }
                            }
                            JOINT LeftHandRing1
                            {
                                OFFSET 8.198514 -0.000004 -1.118859
                                CHANNELS 3 Zrotation Xrotation Yrotation
                                JOINT LeftHandRing2
                                {
                                    OFFSET 4.218182 -0.000003 -0.000001
                                    CHANNELS 3 Zrotation Xrotation Yrotation
                                    JOINT LeftHandRing3
                                    {
                                        OFFSET 2.109086 0.000004 0.000001
                                        CHANNELS 3 Zrotation Xrotation Yrotation
                                        End Site
                                        {
                                            OFFSET 1.872952 0.000000 0.000000
                                        }
                                    }
                                }
                            }
                            JOINT LeftHandPinky1
                            {
                                OFFSET 7.716242 0.000005 -3.375859
                                CHANNELS 3 Zrotation Xrotation Yrotation
                                JOINT LeftHandPinky2
                                {
                                    OFFSET 3.374535 0.000004 0.000002
                                    CHANNELS 3 Zrotation Xrotation Yrotation
                                    JOINT LeftHandPinky3
                                    {
                                        OFFSET 1.687275 0.000002 -0.000001
                                        CHANNELS 3 Zrotation Xrotation Yrotation
                                        End Site
                                        {
                                            OFFSET 1.498360 0.000000 0.000000
                                        }
                                    }
                                }
                            }
                        }
                    }
                }
            }
            JOINT RightShoulder
            {
                OFFSET -3.550531 15.465694 -0.908802
                CHANNELS 3 Zrotation Xrotation Yrotation
                JOINT RightArm
                {
                    OFFSET -12.513298 -0.000004 0.000001
                    CHANNELS 3 Zrotation Xrotation Yrotation
                    JOINT RightForeArm
                    {
                        OFFSET -24.225996 -0.000002 -0.000000
                        CHANNELS 3 Zrotation Xrotation Yrotation
                        JOINT RightHand
                        {
                            OFFSET -20.711401 0.000005 0.000001
                            CHANNELS 3 Zrotation Xrotation Yrotation
                            JOINT RightHandThumb1
                            {
                                OFFSET -2.121970 -2.411334 3.375861
                                CHANNELS 3 Zrotation Xrotation Yrotation
                                JOINT RightHandThumb2
                                {
                                    OFFSET -2.803210 0.000003 -0.000004
                                    CHANNELS 3 Zrotation Xrotation Yrotation
                                    JOINT RightHandThumb3
                                    {
                                        OFFSET -2.395930 -0.000001 0.000002
                                        CHANNELS 3 Zrotation Xrotation Yrotation
                                        End Site
                                        {
                                            OFFSET -2.127676 0.000000 0.000000
                                        }
                                    }
                                }
                            }
                            JOINT RightHandIndex1
                            {
                                OFFSET -8.680779 0.000001 3.375860
                                CHANNELS 3 Zrotation Xrotation Yrotation
                                JOINT RightHandIndex2
                                {
                                    OFFSET -4.218180 0.000000 -0.000000
                                    CHANNELS 3 Zrotation Xrotation Yrotation
                                    JOINT RightHandIndex3
                                    {
                                        OFFSET -2.109090 0.000001 -0.000000
                                        CHANNELS 3 Zrotation Xrotation Yrotation
                                        End Site
                                        {
                                            OFFSET -1.872952 0.000000 0.000000
                                        }
                                    }
                                }
                            }
                            JOINT RightHandMiddle1
                            {
                                OFFSET -8.680780 0.000001 1.118860
                                CHANNELS 3 Zrotation Xrotation Yrotation
                                JOINT RightHandMiddle2
                                {
                                    OFFSET -4.640000 -0.000002 0.000001
                                    CHANNELS 3 Zrotation Xrotation Yrotation
                                    JOINT RightHandMiddle3
                                    {
                                        OFFSET -2.530910 0.000001 -0.000000
                                        CHANNELS 3 Zrotation Xrotation Yrotation
                                        End Site
                                        {
                                            OFFSET -2.247544 0.000000 0.000000
                                        }
                                    }
                                }
                            }
                            JOINT RightHandRing1
                            {
                                OFFSET -8.198519 0.000005 -1.118860
                                CHANNELS 3 Zrotation Xrotation Yrotation
                                JOINT RightHandRing2
                                {
                                    OFFSET -4.218180 -0.000006 0.000000
                                    CHANNELS 3 Zrotation Xrotation Yrotation
                                    JOINT RightHandRing3
                                    {
                                        OFFSET -2.109090 0.000001 -0.000000
                                        CHANNELS 3 Zrotation Xrotation Yrotation
                                        End Site
                                        {
                                            OFFSET -1.872952 0.000000 0.000000
                                        }
                                    }
                                }
                            }
                            JOINT RightHandPinky1
                            {
                                OFFSET -7.716248 -0.000002 -3.375859
                                CHANNELS 3 Zrotation Xrotation Yrotation
                                JOINT RightHandPinky2
                                {
                                    OFFSET -3.374540 0.000000 0.000000
                                    CHANNELS 3 Zrotation Xrotation Yrotation
                                    JOINT RightHandPinky3
                                    {
                                        OFFSET -1.687270 0.000004 0.000001
                                        CHANNELS 3 Zrotation Xrotation Yrotation
                                        End Site
                                        {
                                            OFFSET -1.498360 0.000000 0.000000
                                        }
                                    }
                                }
                            }
                        }
                    }
                }
            }
        }
    }
    JOINT LeftUpLeg
    {
        OFFSET 8.880376 -0.000000 -0.000000
        CHANNELS 3 Zrotation Xrotation Yrotation
        JOINT LeftLeg
        {
            OFFSET -0.000001 -40.387405 -0.000001
            CHANNELS 3 Zrotation Xrotation Yrotation
            JOINT LeftFoot
            {
                OFFSET -0.000001 -36.911297 -0.000001
                CHANNELS 3 Zrotation Xrotation Yrotation
                JOINT LeftToeBase
                {
                    OFFSET -0.000002 -5.772240 13.320604
                    CHANNELS 3 Zrotation Xrotation Yrotation
                    End Site
                    {
                        OFFSET 0.000000 0.000000 3.552151
                    }
                }
            }
        }
    }
    JOINT RightUpLeg
    {
        OFFSET -8.880376 0.000000 0.000000
        CHANNELS 3 Zrotation Xrotation Yrotation
        JOINT RightLeg
        {
            OFFSET -0.000001 -40.387390 0.000000
            CHANNELS 3 Zrotation Xrotation Yrotation
            JOINT RightFoot
            {
                OFFSET 0.000002 -36.911297 -0.000001
                CHANNELS 3 Zrotation Xrotation Yrotation
                JOINT RightToeBase
                {
                    OFFSET 0.000001 -5.772238 13.320600
                    CHANNELS 3 Zrotation Xrotation Yrotation
                    End Site
                    {
                        OFFSET 0.000000 0.000000 3.552151
                    }
                }
            }
        }
    }
}
MOTION
Frames: 4
Frame Time: 0.013889
5.055549    84.779861    10.564567    5.673201    6.528571    -3.596463    -0.282576    -15.868817    -1.033318    1.817200    12.424021    -1.362082    -11.774064    -13.656405    3.535249    -0.085428    5.545228    6.358751    8.541533    8.204943    -5.962121    -21.238548    58.005722    -19.833601    -56.289310    13.142593    -98.626099    35.934437    -29.727736    11.495320    39.937141    24.820089    -52.560772    -26.920601    -6.370737    22.477184    -0.000000    0.000000    -0.000000    -5.680127    17.917240    -4.576049    -5.403812    0.000002    -0.000003    -5.403815    -0.000007    -0.000002    -3.471485    8.983761    -2.621616    -3.428847    -0.000000    0.000001    -3.428858    0.000002    -0.000004    -2.471762    -8.991768    -2.883713    -2.441371    -0.000000    0.000002    -2.441367    -0.000002    0.000002    -1.528676    -17.993963    -5.466660    -1.453883    0.000003    -0.000002    -1.453890    0.000002    0.000002    -10.804677    -3.601969    -0.223974    10.675467    4.975369    45.853615    43.790569    36.394104    121.754585    -7.166660    -30.671312    -12.813688    -45.748749    22.210011    47.336964    9.682380    0.958933    -23.298851    -0.000000    0.000000    -0.000000    -6.022324    17.906988    -3.871685    -5.729579    -0.000003    0.000000    -5.729577    0.000003    0.000001    -5.800519    8.954679    -1.958902    -5.729578    -0.000003    0.000000    -5.729579    0.000003    0.000001    -5.800515    -8.954669    -1.132527    -5.729580    -0.000000    0.000001    -5.729577    0.000000    0.000000    -6.022320    -17.906971    -2.311171    -5.729577    -0.000003    -0.000001    -5.729579    0.000003    0.000001    1.355095    -24.628761    -8.456570    0.000001    44.172852    -0.000000    5.213738    12.157136    7.341626    0.000003    0.589320    -0.000000    -11.594400    -9.688220    -11.597555    -0.000000    19.672930    0.000002    6.265686    -6.905352    9.299154    -0.000000    -1.960368    0.000001    
4.737265    84.657249    10.385624    5.895538    6.464406    -3.589720    -0.283792    -15.657398    -1.051419    2.235498    12.454595    -1.471473    -11.431795    -13.780445    3.740069    -0.022484    5.534929    6.508523    8.774829    8.136266    -6.025063    -20.781639    58.103424    -19.635412    -56.471264    13.716720    -98.929230    35.631096    -29.079699    12.241009    40.132629    24.652935    -52.497021    -26.520519    -6.206024    22.521002    -0.000000    0.000000    -0.000000    -4.361421    17.951185    -3.379486    -4.148713    -0.000002    0.000003    -4.148723    -0.000002    -0.000000    -2.416683    8.992131    -1.985087    -2.386965    0.000003    -0.000002    -2.386968    0.000000    -0.000001    -1.524850    -8.996870    -2.642453    -1.506082    0.000000    -0.000002    -1.506079    0.000001    0.000002    -0.657376    -17.998844    -5.011015    -0.625205    0.000001    -0.000002    -0.625212    0.000001    0.000003    -9.806289    -3.785210    0.203401    11.506005    5.101187    44.961945    43.792656    36.298950    121.694878    -4.702310    -30.499634    -11.831783    -45.782856    22.142380    47.410324    9.684601    0.957979    -23.298885    -0.000000    0.000000    -0.000000    -6.022321    17.906973    -3.871685    -5.729578    0.000003    -0.000000    -5.729579    0.000000    -0.000002    -5.800518    8.954668    -1.958901    -5.729578    -0.000003    -0.000001    -5.729579    0.000007    0.000000    -5.800515    -8.954664    -1.235598    -5.729578    0.000003    0.000001    -5.729580    -0.000003    -0.000000    -6.022320    -17.906979    -2.517315    -5.729579    0.000007    0.000002    -5.729581    0.000000    0.000000    0.003201    -25.551172    -8.306722    -0.000001    45.888535    0.000003    4.720088    12.155844    6.690588    -0.000002    0.362236    0.000002    -11.599152    -10.008394    -11.431109    0.000001    20.294926    -0.000001    6.023719    -7.745662    9.103900    0.000000    -1.589514    0.000000    
4.447592    84.528893    10.214695    6.123289    6.421388    -3.513366    -0.287467    -15.470167    -1.077600    2.660063    12.454361    -1.589000    -11.152860    -13.851435    3.887779    0.049808    5.541267    6.601992    9.081773    8.171047    -6.089315    -20.062153    58.183014    -19.788229    -56.937733    14.305182    -99.137299    35.182423    -28.673203    12.644663    40.269787    24.548452    -52.425205    -26.152956    -6.054355    22.560259    -0.000000    0.000000    -0.000000    -2.889335    17.978546    -2.232454    -2.748138    -0.000000    0.000002    -2.748149    -0.000002    -0.000003    -1.397652    8.997375    -1.343860    -1.380475    0.000000    -0.000004    -1.380464    -0.000003    0.000002    -0.705296    -8.999336    -2.420323    -0.696618    0.000001    -0.000002    -0.696611    0.000001    0.000000    -0.013436    -17.999950    -4.624139    -0.012768    0.000002    0.000000    -0.012779    -0.000000    -0.000000    -8.902436    -3.921048    0.622610    12.312592    5.183644    43.981701    44.040863    36.244503    121.440193    -1.735773    -30.538267    -10.489763    -45.854321    22.069279    47.439064    9.679877    0.960013    -23.298811    -0.000000    0.000000    -0.000000    -6.022316    17.906967    -3.871688    -5.729579    -0.000007    -0.000001    -5.729579    -0.000000    0.000001    -5.799425    8.954671    -1.959073    -5.728504    0.000010    0.000002    -5.728504    -0.000007    -0.000002    -5.798884    -8.954692    -1.374230    -5.727967    -0.000003    -0.000002    -5.727970    0.000000    0.000000    -6.020066    -17.907053    -2.794394    -5.727430    0.000003    0.000001    -5.727433    0.000007    0.000001    -1.387597    -26.475130    -8.037630    0.000001    47.540623    -0.000001    4.019912    11.886883    6.314759    -0.000005    0.131531    -0.000001    -11.678837    -10.355354    -11.458508    -0.000000    21.018879    0.000002    5.890154    -8.580557    9.019668    -0.000000    -1.268286    -0.000001    
4.082575    84.355881    9.969247    6.407490    6.383656    -3.546234    -0.280142    -15.224527    -1.066683    3.190417    12.444149    -1.694443    -10.711394    -13.912221    4.105264    0.286571    5.516957    6.710738    9.575576    8.196699    -5.956219    -18.802940    58.188751    -20.351555    -57.749161    15.150963    -99.364548    34.639374    -28.375477    13.386914    40.202496    24.699327    -52.236992    -25.836454    -5.923469    22.593285    -0.000000    0.000000    -0.000000    -0.552557    17.999170    -0.618336    -0.525523    0.000000    -0.000003    -0.525513    0.000003    -0.000002    0.211726    8.999942    -0.427663    0.209126    -0.000000    -0.000001    0.209129    0.000000    0.000003    0.583632    -8.999543    -2.106140    0.576448    0.000000    0.000002    0.576447    -0.000000    -0.000002    0.992324    -17.997429    -4.088244    0.943779    0.000003    -0.000000    0.943766    -0.000004    -0.000002    -7.567487    -4.041932    1.166178    13.527229    5.261101    42.666821    44.341347    36.147972    121.114883    2.365491    -30.155603    -8.875107    -46.069485    21.896177    47.440548    9.631868    0.980685    -23.297987    -0.000000    0.000000    -0.000000    -6.022316    17.906971    -3.871683    -5.729580    0.000007    0.000000    -5.729578    -0.000003    -0.000001    -5.754005    8.955399    -1.966139    -5.683632    -0.000007    -0.000002    -5.683631    0.000003    0.000000    -5.730752    -8.955752    -1.610219    -5.660658    0.000003    0.000002    -5.660658    -0.000000    0.000002    -5.925796    -17.909931    -3.258590    -5.637682    0.000003    0.000000    -5.637683    -0.000003    0.000002    -3.108538    -27.631561    -7.501207    0.000001    49.554302    -0.000001    2.664575    11.470589    5.981552    0.000001    0.060280    -0.000000    -11.797906    -10.955325    -11.416492    -0.000000    22.084154    -0.000001    5.834059    -9.571302    9.087788    0.000000    -0.893582    0.000000    
